<svg width="168" height="58" viewBox="0 0 168 58" fill="none" xmlns="http://www.w3.org/2000/svg">
<g filter="url(#filter0_b_31_238)">
<rect x="0.298828" width="166.39" height="57.8405" rx="11.3413" fill="#241C71"/>
</g>
<path d="M63.5573 23.6777H62.9868V18.5909H61.109V18.068H65.4351V18.5909H63.5573V23.6777ZM66.8393 20.548H67.8535C68.107 20.548 68.321 20.5216 68.4953 20.4688C68.6749 20.416 68.8175 20.3473 68.9231 20.2628C69.0288 20.173 69.1054 20.07 69.1529 19.9538C69.2005 19.8323 69.2242 19.7029 69.2242 19.5655C69.2242 19.4335 69.2005 19.3093 69.1529 19.1931C69.1054 19.0716 69.0288 18.966 68.9231 18.8762C68.8175 18.7864 68.6749 18.7177 68.4953 18.6702C68.321 18.6174 68.107 18.5909 67.8535 18.5909H66.8393V20.548ZM66.8393 23.6777H66.2688V18.068H67.9961C68.5666 18.068 69.0156 18.1921 69.3431 18.4404C69.6759 18.6887 69.8422 19.0637 69.8422 19.5655C69.8422 19.9564 69.7181 20.2865 69.4698 20.5559C69.2269 20.82 68.873 20.9732 68.4081 21.0155L70.0245 23.6777H69.3272L67.7901 21.071H66.8393V23.6777ZM71.6628 21.681H74.0953L72.883 18.7336L71.6628 21.681ZM70.8309 23.6777H70.1653L72.6057 18.068H73.1603L75.6007 23.6777H74.9352L74.3171 22.204H71.4489L70.8309 23.6777ZM76.8094 23.1548H77.9187C78.3465 23.1548 78.7163 23.0914 79.028 22.9646C79.3449 22.8326 79.6064 22.6609 79.8124 22.4496C80.0237 22.233 80.1795 21.9901 80.2798 21.7207C80.3802 21.446 80.4304 21.1634 80.4304 20.8729C80.4304 20.5823 80.3802 20.3024 80.2798 20.033C80.1795 19.7583 80.0237 19.5153 79.8124 19.304C79.6064 19.0875 79.3449 18.9158 79.028 18.789C78.7163 18.657 78.3465 18.5909 77.9187 18.5909H76.8094V23.1548ZM76.2389 18.068H78.1009C78.4495 18.068 78.7982 18.1261 79.1468 18.2423C79.5007 18.3585 79.8176 18.5355 80.0976 18.7732C80.3828 19.0056 80.6126 19.2988 80.7869 19.6527C80.9613 20.0013 81.0484 20.408 81.0484 20.8729C81.0484 21.343 80.9613 21.7524 80.7869 22.101C80.6126 22.4496 80.3828 22.7428 80.0976 22.9805C79.8176 23.2129 79.5007 23.3872 79.1468 23.5034C78.7982 23.6196 78.4495 23.6777 78.1009 23.6777H76.2389V18.068ZM82.7219 23.1548H85.7249V23.6777H82.1514V18.068H85.6298V18.5909H82.7219V20.5005H85.4396V21.0234H82.7219V23.1548ZM93.8233 20.8729C93.8233 20.5506 93.7705 20.2443 93.6648 19.9538C93.5592 19.658 93.406 19.3991 93.2053 19.1773C93.0098 18.9554 92.7695 18.7785 92.4842 18.6464C92.199 18.5143 91.8768 18.4483 91.5176 18.4483C91.1584 18.4483 90.8362 18.5143 90.5509 18.6464C90.2657 18.7785 90.0227 18.9554 89.822 19.1773C89.6265 19.3991 89.476 19.658 89.3703 19.9538C89.2647 20.2443 89.2119 20.5506 89.2119 20.8729C89.2119 21.1951 89.2647 21.5041 89.3703 21.7999C89.476 22.0904 89.6265 22.3466 89.822 22.5685C90.0227 22.7903 90.2657 22.9673 90.5509 23.0993C90.8362 23.2314 91.1584 23.2974 91.5176 23.2974C91.8768 23.2974 92.199 23.2314 92.4842 23.0993C92.7695 22.9673 93.0098 22.7903 93.2053 22.5685C93.406 22.3466 93.5592 22.0904 93.6648 21.7999C93.7705 21.5041 93.8233 21.1951 93.8233 20.8729ZM94.4413 20.8729C94.4413 21.3007 94.3673 21.6943 94.2194 22.0534C94.0715 22.4126 93.8655 22.7243 93.6014 22.9884C93.3426 23.2472 93.0336 23.4506 92.6744 23.5985C92.3205 23.7464 91.9349 23.8204 91.5176 23.8204C91.1003 23.8204 90.712 23.7464 90.3528 23.5985C89.9989 23.4506 89.6899 23.2472 89.4258 22.9884C89.167 22.7243 88.9636 22.4126 88.8157 22.0534C88.6678 21.6943 88.5939 21.3007 88.5939 20.8729C88.5939 20.445 88.6678 20.0515 88.8157 19.6923C88.9636 19.3331 89.167 19.0241 89.4258 18.7653C89.6899 18.5011 89.9989 18.2951 90.3528 18.1472C90.712 17.9993 91.1003 17.9254 91.5176 17.9254C91.9349 17.9254 92.3205 17.9993 92.6744 18.1472C93.0336 18.2951 93.3426 18.5011 93.6014 18.7653C93.8655 19.0241 94.0715 19.3331 94.2194 19.6923C94.3673 20.0515 94.4413 20.445 94.4413 20.8729ZM99.5993 22.822H99.6151V18.068H100.186V23.6777H99.4725L96.1288 18.8762H96.113V23.6777H95.5425V18.068H96.2556L99.5993 22.822ZM61.0139 30.4583H62.5986L65.0707 39.4275H65.1023L67.7487 30.4583H69.4919L72.1383 39.4275H72.17L74.6421 30.4583H76.2267L72.9623 41.6777H71.3618L68.6362 32.5183H68.6045L65.8947 41.6777H64.2942L61.0139 30.4583ZM77.3188 29.6976H78.745V35.3232H78.7767C78.9563 34.9218 79.2679 34.5995 79.7117 34.3566C80.1554 34.103 80.6677 33.9762 81.2488 33.9762C81.608 33.9762 81.9513 34.0343 82.2788 34.1505C82.6169 34.2562 82.9074 34.4252 83.1504 34.6576C83.4039 34.8901 83.6047 35.1911 83.7526 35.5609C83.9005 35.9201 83.9744 36.348 83.9744 36.8445V41.6777H82.5482V37.2407C82.5482 36.892 82.5007 36.5962 82.4056 36.3532C82.3105 36.0997 82.1837 35.899 82.0253 35.7511C81.8668 35.5926 81.6819 35.4817 81.4706 35.4183C81.2699 35.3443 81.0586 35.3074 80.8368 35.3074C80.541 35.3074 80.2663 35.3549 80.0127 35.45C79.7592 35.5451 79.5373 35.6982 79.3472 35.9095C79.157 36.1103 79.0091 36.3691 78.9035 36.686C78.7978 37.003 78.745 37.378 78.745 37.8111V41.6777H77.3188V29.6976ZM86.1559 35.0855C86.5574 34.7157 87.0222 34.4411 87.5505 34.2615C88.0787 34.0713 88.6069 33.9762 89.1351 33.9762C89.6845 33.9762 90.1546 34.0449 90.5455 34.1822C90.9469 34.3196 91.2744 34.5045 91.528 34.7369C91.7815 34.9693 91.9664 35.2387 92.0826 35.5451C92.2094 35.8409 92.2728 36.1525 92.2728 36.48V40.3149C92.2728 40.579 92.2781 40.822 92.2886 41.0439C92.2992 41.2657 92.315 41.477 92.3362 41.6777H91.0684C91.0367 41.2974 91.0209 40.9171 91.0209 40.5368H90.9892C90.6723 41.0227 90.2972 41.3661 89.8641 41.5668C89.4309 41.7675 88.9291 41.8679 88.3586 41.8679C88.01 41.8679 87.6772 41.8204 87.3603 41.7253C87.0434 41.6302 86.7634 41.4876 86.5204 41.2974C86.288 41.1073 86.1031 40.8748 85.9658 40.6002C85.8284 40.3149 85.7598 39.9874 85.7598 39.6177C85.7598 39.1317 85.8654 38.725 86.0767 38.3975C86.2986 38.07 86.5944 37.8059 86.9641 37.6051C87.3444 37.3938 87.7829 37.2459 88.2794 37.1614C88.7865 37.0663 89.3253 37.0188 89.8958 37.0188H90.9416V36.7019C90.9416 36.5117 90.9047 36.3215 90.8307 36.1314C90.7568 35.9412 90.6458 35.7722 90.4979 35.6243C90.35 35.4658 90.1652 35.3443 89.9433 35.2598C89.7215 35.1647 89.4573 35.1172 89.151 35.1172C88.8763 35.1172 88.6333 35.1436 88.422 35.1964C88.2213 35.2493 88.0364 35.3179 87.8674 35.4024C87.6984 35.4764 87.5452 35.5662 87.4078 35.6718C87.2705 35.7775 87.1384 35.8778 87.0117 35.9729L86.1559 35.0855ZM90.181 38.0647C89.8429 38.0647 89.4943 38.0858 89.1351 38.1281C88.7865 38.1598 88.4643 38.2284 88.1685 38.3341C87.8832 38.4397 87.6455 38.5876 87.4554 38.7778C87.2758 38.9679 87.186 39.2109 87.186 39.5067C87.186 39.9399 87.3286 40.2515 87.6138 40.4417C87.9096 40.6319 88.3058 40.7269 88.8023 40.7269C89.1932 40.7269 89.526 40.6635 89.8007 40.5368C90.0754 40.3994 90.2972 40.2251 90.4662 40.0138C90.6353 39.8025 90.7568 39.5701 90.8307 39.3166C90.9047 39.0525 90.9416 38.7936 90.9416 38.5401V38.0647H90.181ZM98.3667 35.4024H96.3225V38.8095C96.3225 39.0208 96.3278 39.2321 96.3383 39.4433C96.3489 39.6441 96.3859 39.829 96.4492 39.998C96.5232 40.1564 96.6288 40.2885 96.7662 40.3942C96.9141 40.4892 97.1254 40.5368 97.4 40.5368C97.5691 40.5368 97.7434 40.5209 97.923 40.4892C98.1026 40.4575 98.2663 40.3994 98.4142 40.3149V41.6143C98.2452 41.7094 98.0234 41.7728 97.7487 41.8045C97.4846 41.8468 97.2786 41.8679 97.1307 41.8679C96.5813 41.8679 96.1534 41.7939 95.8471 41.646C95.5513 41.4876 95.3294 41.2868 95.1815 41.0439C95.0442 40.8009 94.9597 40.5315 94.928 40.2357C94.9068 39.9293 94.8963 39.6229 94.8963 39.3166V35.4024H93.2482V34.1664H94.8963V32.0588H96.3225V34.1664H98.3667V35.4024ZM104.2 36.0522C104.031 35.8409 103.82 35.6665 103.566 35.5292C103.323 35.3813 103.022 35.3074 102.663 35.3074C102.325 35.3074 102.029 35.3813 101.776 35.5292C101.533 35.6665 101.411 35.8726 101.411 36.1472C101.411 36.3691 101.48 36.5487 101.617 36.686C101.765 36.8234 101.934 36.9343 102.124 37.0188C102.325 37.1033 102.536 37.1667 102.758 37.209C102.98 37.2512 103.17 37.2882 103.329 37.3199C103.635 37.3938 103.92 37.4836 104.184 37.5893C104.459 37.6949 104.691 37.8323 104.882 38.0013C105.082 38.1703 105.235 38.3763 105.341 38.6193C105.457 38.8623 105.515 39.1581 105.515 39.5067C105.515 39.9293 105.426 40.2938 105.246 40.6002C105.066 40.896 104.834 41.1389 104.549 41.3291C104.264 41.5193 103.936 41.6566 103.566 41.7411C103.207 41.8256 102.843 41.8679 102.473 41.8679C101.85 41.8679 101.3 41.7728 100.825 41.5827C100.36 41.3925 99.9427 41.0439 99.5729 40.5368L100.65 39.6494C100.883 39.8818 101.142 40.0878 101.427 40.2674C101.712 40.447 102.061 40.5368 102.473 40.5368C102.652 40.5368 102.832 40.5209 103.012 40.4892C103.202 40.447 103.366 40.3889 103.503 40.3149C103.651 40.2304 103.767 40.13 103.852 40.0138C103.947 39.8871 103.994 39.7444 103.994 39.586C103.994 39.3747 103.925 39.2004 103.788 39.063C103.661 38.9257 103.503 38.82 103.313 38.7461C103.133 38.6616 102.938 38.5982 102.726 38.5559C102.526 38.5031 102.346 38.4609 102.188 38.4292C101.881 38.3552 101.591 38.2707 101.316 38.1756C101.041 38.0805 100.798 37.9538 100.587 37.7953C100.376 37.6368 100.207 37.4361 100.08 37.1931C99.9532 36.9501 99.8898 36.649 99.8898 36.2899C99.8898 35.899 99.9691 35.5609 100.128 35.2757C100.297 34.9799 100.513 34.7369 100.777 34.5467C101.052 34.3566 101.358 34.2139 101.696 34.1189C102.045 34.0238 102.394 33.9762 102.742 33.9762C103.249 33.9762 103.735 34.0713 104.2 34.2615C104.665 34.4516 105.035 34.7686 105.309 35.2123L104.2 36.0522ZM111.13 30.4583H112.509L117.311 41.6777H115.536L114.411 38.9046H109.07L107.961 41.6777H106.186L111.13 30.4583ZM113.856 37.5734L111.764 32.4233H111.733L109.609 37.5734H113.856ZM118.406 34.1664H119.832V35.244H119.864C120.138 34.8425 120.513 34.5309 120.989 34.309C121.475 34.0872 121.971 33.9762 122.478 33.9762C123.059 33.9762 123.582 34.0766 124.047 34.2773C124.523 34.478 124.924 34.758 125.252 35.1172C125.59 35.4764 125.848 35.899 126.028 36.3849C126.208 36.8603 126.297 37.3727 126.297 37.9221C126.297 38.482 126.208 39.0049 126.028 39.4909C125.848 39.9663 125.59 40.3836 125.252 40.7428C124.924 41.0914 124.523 41.3661 124.047 41.5668C123.582 41.7675 123.059 41.8679 122.478 41.8679C121.94 41.8679 121.432 41.757 120.957 41.5351C120.482 41.3027 120.117 40.991 119.864 40.6002H119.832V46.1465H118.406V34.1664ZM122.304 35.3074C121.924 35.3074 121.58 35.376 121.274 35.5134C120.968 35.6401 120.709 35.8197 120.497 36.0522C120.286 36.274 120.122 36.5487 120.006 36.8762C119.89 37.1931 119.832 37.5417 119.832 37.9221C119.832 38.3024 119.89 38.6563 120.006 38.9838C120.122 39.3007 120.286 39.5754 120.497 39.8078C120.709 40.0297 120.968 40.2093 121.274 40.3466C121.58 40.4734 121.924 40.5368 122.304 40.5368C122.684 40.5368 123.028 40.4734 123.334 40.3466C123.64 40.2093 123.899 40.0297 124.111 39.8078C124.322 39.5754 124.486 39.3007 124.602 38.9838C124.718 38.6563 124.776 38.3024 124.776 37.9221C124.776 37.5417 124.718 37.1931 124.602 36.8762C124.486 36.5487 124.322 36.274 124.111 36.0522C123.899 35.8197 123.64 35.6401 123.334 35.5134C123.028 35.376 122.684 35.3074 122.304 35.3074ZM128.093 34.1664H129.519V35.244H129.551C129.826 34.8425 130.201 34.5309 130.676 34.309C131.162 34.0872 131.659 33.9762 132.166 33.9762C132.747 33.9762 133.27 34.0766 133.735 34.2773C134.21 34.478 134.612 34.758 134.939 35.1172C135.277 35.4764 135.536 35.899 135.716 36.3849C135.895 36.8603 135.985 37.3727 135.985 37.9221C135.985 38.482 135.895 39.0049 135.716 39.4909C135.536 39.9663 135.277 40.3836 134.939 40.7428C134.612 41.0914 134.21 41.3661 133.735 41.5668C133.27 41.7675 132.747 41.8679 132.166 41.8679C131.627 41.8679 131.12 41.757 130.645 41.5351C130.169 41.3027 129.805 40.991 129.551 40.6002H129.519V46.1465H128.093V34.1664ZM131.992 35.3074C131.611 35.3074 131.268 35.376 130.962 35.5134C130.655 35.6401 130.396 35.8197 130.185 36.0522C129.974 36.274 129.81 36.5487 129.694 36.8762C129.578 37.1931 129.519 37.5417 129.519 37.9221C129.519 38.3024 129.578 38.6563 129.694 38.9838C129.81 39.3007 129.974 39.5754 130.185 39.8078C130.396 40.0297 130.655 40.2093 130.962 40.3466C131.268 40.4734 131.611 40.5368 131.992 40.5368C132.372 40.5368 132.715 40.4734 133.022 40.3466C133.328 40.2093 133.587 40.0297 133.798 39.8078C134.009 39.5754 134.173 39.3007 134.289 38.9838C134.406 38.6563 134.464 38.3024 134.464 37.9221C134.464 37.5417 134.406 37.1931 134.289 36.8762C134.173 36.5487 134.009 36.274 133.798 36.0522C133.587 35.8197 133.328 35.6401 133.022 35.5134C132.715 35.376 132.372 35.3074 131.992 35.3074Z" fill="white"/>
<g clip-path="url(#clip0_31_238)">
<path d="M21.8096 42.8743L22.4242 43.1816C24.9851 44.718 27.8531 45.435 30.7212 45.435C39.7351 45.435 47.1101 38.06 47.1101 29.0461C47.1101 24.7441 45.3687 20.5444 42.2959 17.4714C39.2229 14.3985 35.1256 12.6572 30.7212 12.6572C21.7073 12.6572 14.3322 20.0322 14.4346 29.1486C14.4346 32.2214 15.3565 35.1921 16.8929 37.7527L17.3026 38.3674L15.6639 44.4108L21.8096 42.8743Z" fill="#00E676"/>
<path d="M44.0363 15.832C40.5537 12.247 35.7394 10.3008 30.8227 10.3008C20.3749 10.3008 11.9755 18.8025 12.0779 29.148C12.0779 32.4258 12.9998 35.6012 14.5363 38.4692L11.873 48.2001L21.8088 45.6394C24.5744 47.1759 27.6473 47.8929 30.7204 47.8929C41.0658 47.8929 49.4652 39.3911 49.4652 29.0458C49.4652 24.0266 47.519 19.3147 44.0365 15.832H44.0363ZM30.8227 44.7176C28.0571 44.7176 25.2915 44.0007 22.9355 42.5667L22.321 42.2594L16.3801 43.7958L17.9165 37.9573L17.5068 37.3426C12.9998 30.0701 15.1509 20.4414 22.5259 15.9344C29.9009 11.4275 39.4269 13.5786 43.934 20.9536C48.4408 28.3286 46.2898 37.8547 38.9149 42.3617C36.5588 43.8981 33.6908 44.7175 30.8227 44.7175V44.7176ZM39.8366 33.3479L38.7099 32.8358C38.7099 32.8358 37.0712 32.1187 36.0468 31.6065C35.9443 31.6065 35.8419 31.504 35.7394 31.504C35.4321 31.504 35.2273 31.6065 35.0224 31.709C35.0224 31.709 34.9201 31.8114 33.486 33.4503C33.3835 33.6551 33.1787 33.7576 32.9738 33.7576H32.8713C32.769 33.7576 32.5641 33.6551 32.4616 33.5528L31.9494 33.3479C30.8227 32.8358 29.7985 32.2211 28.979 31.4017C28.7741 31.1969 28.4668 30.992 28.2619 30.7872C27.5449 30.0701 26.8279 29.2506 26.3159 28.3287L26.2134 28.1239C26.111 28.0214 26.111 27.919 26.0085 27.7142C26.0085 27.5094 26.0085 27.3045 26.111 27.202C26.111 27.202 26.5207 26.6898 26.8279 26.3826C27.0329 26.1776 27.1352 25.8705 27.3401 25.6656C27.5449 25.3583 27.6474 24.9486 27.5449 24.6412C27.4426 24.129 26.2134 21.3634 25.9062 20.7489C25.7012 20.4416 25.4965 20.3392 25.1891 20.2367H24.0624C23.8574 20.2367 23.6527 20.3392 23.4477 20.3392L23.3452 20.4415C23.1404 20.544 22.9355 20.7489 22.7307 20.8512C22.5259 21.0562 22.4234 21.2609 22.2185 21.4659C21.5015 22.3878 21.0918 23.5145 21.0918 24.6412C21.0918 25.4606 21.2966 26.2801 21.604 26.9972L21.7065 27.3045C22.6284 29.2506 23.8574 30.992 25.4965 32.5284L25.9062 32.9381C26.2134 33.2454 26.5207 33.4503 26.7255 33.7575C28.8766 35.6014 31.3349 36.9329 34.1005 37.65C34.4079 37.7523 34.8176 37.7523 35.1249 37.8548H36.1491C36.6613 37.8548 37.2759 37.65 37.6857 37.4451C37.9929 37.2403 38.1977 37.2403 38.4026 37.0354L38.6076 36.8305C38.8124 36.6256 39.0173 36.5233 39.2221 36.3184C39.4269 36.1136 39.6318 35.9087 39.7343 35.7037C39.9391 35.294 40.0415 34.7819 40.144 34.2698V33.5528C40.144 33.5528 40.0415 33.4503 39.8366 33.3479Z" fill="white"/>
</g>
<defs>
<filter id="filter0_b_31_238" x="-113.114" y="-113.413" width="393.216" height="284.666" filterUnits="userSpaceOnUse" color-interpolation-filters="sRGB">
<feFlood flood-opacity="0" result="BackgroundImageFix"/>
<feGaussianBlur in="BackgroundImage" stdDeviation="56.7064"/>
<feComposite in2="SourceAlpha" operator="in" result="effect1_backgroundBlur_31_238"/>
<feBlend mode="normal" in="SourceGraphic" in2="effect1_backgroundBlur_31_238" result="shape"/>
</filter>
<clipPath id="clip0_31_238">
<rect width="37.5916" height="38.0321" fill="white" transform="translate(11.873 10.3008)"/>
</clipPath>
</defs>
</svg>
